PathFileType	4	(X/Y/Z)	c:/Users/goper/Files/vsCode/490R/osim_files/C12/C12_ROM.trc
DataRate	CameraRate	NumFrames	NumMarkers	Units                	OrigDataRate	OrigDataStartFrame	OrigNumFrames
120.00	120.00	4	36	mm	120.0	1434	1911
                Frame#	Time	LPSIS			LASIS			LTH1			LTH2			LTH3			LTH4			LLFE			LMFE			LSH1			LSH2			LSH3			LSH4			LLMAL			LMMAL			LCAL			LMTP5			LTOE			LMTP1			RPSIS			RASIS			RTH1			RTH2			RTH3			RTH4			RLFE			RMFE			RSH1			RSH2			RSH3			RSH4			RLMAL			RMMAL			RCAL			RMTP1			RTOE			RMTP5		
		X1	Y1	Z1	X2	Y2	Z2	X3	Y3	Z3	X4	Y4	Z4	X5	Y5	Z5	X6	Y6	Z6	X7	Y7	Z7	X8	Y8	Z8	X9	Y9	Z9	X10	Y10	Z10	X11	Y11	Z11	X12	Y12	Z12	X13	Y13	Z13	X14	Y14	Z14	X15	Y15	Z15	X16	Y16	Z16	X17	Y17	Z17	X18	Y18	Z18	X19	Y19	Z19	X20	Y20	Z20	X21	Y21	Z21	X22	Y22	Z22	X23	Y23	Z23	X24	Y24	Z24	X25	Y25	Z25	X26	Y26	Z26	X27	Y27	Z27	X28	Y28	Z28	X29	Y29	Z29	X30	Y30	Z30	X31	Y31	Z31	X32	Y32	Z32	X33	Y33	Z33	X34	Y34	Z34	X35	Y35	Z35	X36	Y36	Z36

1434	11.94167	-537.78448	585.43079	400.01602	-411.23865	605.45673	320.00574	-345.87979	439.10400	198.34383	-303.53610	442.22894	185.04474	-344.28940	500.04077	204.00912	-302.26413	495.24414	189.25206	-113.30347	471.42154	144.14709	-75.73270	458.27475	274.05325	-160.72736	401.23862	136.71996	-178.95030	356.61630	135.45049	-106.41996	374.57278	133.98564	-132.47945	334.03714	136.04276	-284.54868	97.39342	202.63214	-270.34760	103.17450	279.64334	-351.97253	68.41776	247.41066	-164.46750	40.03363	158.63480	-107.51221	76.04082	221.55141	-129.84758	47.03060	265.10678	-541.21057	582.44135	504.86780	-410.78857	610.82391	574.22754	-336.77466	461.34885	708.82910	-292.14435	465.16934	719.30359	-330.57590	520.90521	693.65326	-285.82678	515.62531	708.99908	-116.82787	460.77643	760.35791	-76.34447	448.67767	623.69592	-173.99229	399.44238	763.78522	-188.95555	359.26706	769.13068	-118.10750	371.19534	772.14105	-141.90564	337.14929	776.94849	-285.18518	97.65627	707.77441	-262.20004	110.74787	630.28497	-360.38400	60.27365	658.85193	-140.45642	51.30837	653.47803	-105.66050	72.63078	691.64697	-150.08795	41.62196	758.60645
1435	11.95000	-536.46490	581.83752	400.35159	-411.42670	604.15320	319.97543	-345.33807	437.74097	198.07368	-302.97638	441.00262	184.72360	-344.04813	498.60675	203.83739	-301.99451	494.02380	189.05835	-112.87821	471.05243	143.80887	-75.13388	457.87976	273.81458	-160.29727	400.93130	136.45518	-178.59732	356.30130	135.23497	-105.99621	374.15714	133.76402	-132.19395	333.74435	135.83199	-284.41428	97.37435	202.63211	-270.23413	103.14603	279.64154	-351.85336	68.52429	247.40381	-164.39709	39.94102	158.63646	-107.43687	75.80610	221.57394	-129.73265	46.85501	265.16980	-541.11389	579.65607	504.60101	-411.01547	609.53271	574.12109	-336.78726	459.60800	708.65643	-292.00854	463.75583	719.14349	-330.37183	519.26996	693.60895	-285.85028	514.24261	708.80505	-116.79446	460.53763	760.50244	-75.77755	448.42145	623.68817	-174.00000	399.31509	763.70538	-188.90392	359.15485	769.07043	-118.06506	371.08835	772.22919	-141.84256	337.01520	777.00983	-285.02481	97.63685	707.72064	-262.02820	110.67831	630.18634	-360.29471	60.34474	658.77545	-140.39522	51.06032	653.37427	-105.52258	72.39418	691.59863	-149.99399	41.48346	758.61420
1436	11.95833	-536.34180	579.43488	400.10696	-411.57404	602.97705	319.94681	-344.72226	436.41241	197.75890	-302.29510	439.96442	184.36871	-343.68106	497.34439	203.60791	-301.63702	492.91138	188.85196	-112.55089	470.74561	143.46869	-74.53652	457.54135	273.60022	-159.93800	400.63876	136.20018	-178.23822	355.96707	135.04082	-105.61182	373.89728	133.53564	-131.87630	333.41467	135.65892	-284.27209	97.39248	202.63516	-270.11407	103.11526	279.62424	-351.76022	68.61510	247.37692	-164.36208	39.84567	158.62628	-107.39135	75.61481	221.60326	-129.67157	46.64794	265.20514	-541.17688	577.14453	504.29019	-411.19949	608.36530	574.01660	-336.65002	458.06021	708.45941	-291.82675	462.42056	718.93433	-330.59933	517.59625	693.36603	-285.51288	513.09631	708.69531	-116.70991	460.33951	760.60352	-75.32428	448.23679	623.67493	-173.89429	399.17261	763.58923	-188.84785	359.01126	768.97424	-117.99558	370.98242	772.28693	-141.74860	336.89780	777.00189	-284.88239	97.64099	707.62866	-261.85468	110.60442	630.10925	-360.25452	60.44310	658.69788	-140.34187	50.83002	653.32825	-105.40840	72.17970	691.58374	-149.91420	41.37913	758.62561
1437	11.96667	-536.26233	577.41168	399.67139	-411.68042	601.92932	319.91989	-344.06464	435.34872	197.52968	-301.75867	438.97815	184.14529	-343.20432	496.25839	203.44392	-301.17270	491.97586	188.66777	-112.08756	470.41837	143.20888	-73.96969	457.23050	273.45563	-159.56918	400.39529	136.01358	-177.87312	355.74548	134.87378	-105.21691	373.66299	133.31339	-131.48210	333.10831	135.47630	-284.17960	97.40521	202.64040	-270.06693	103.11185	279.60062	-351.67532	68.67979	247.42984	-164.35252	39.78405	158.61464	-107.33751	75.43643	221.62547	-129.62561	46.49669	265.21835	-541.16052	575.02716	503.90158	-411.34052	607.32251	573.91431	-336.50525	456.97400	708.19464	-291.58844	461.45471	718.72180	-330.47812	516.53131	693.01929	-286.00122	511.92545	708.41473	-116.60725	460.24808	760.65265	-74.99123	448.07983	623.61841	-173.85982	399.08405	763.41187	-188.75816	358.98160	768.83020	-117.92291	370.95950	772.29901	-141.68779	336.81396	776.94513	-284.80954	97.68136	707.54645	-261.77188	110.56884	630.02979	-360.20886	60.49557	658.62177	-140.04062	50.92733	653.25507	-105.34793	72.08176	691.56128	-149.90135	41.32199	758.62561
